# xmcd CD database file
#
# Track frame offsets:
#	150
#	42770
#	54029
#	77660
#	107623
#	124950
#	150262
#	177226
#	202017
#	222996
#	256304
#	266585
#	289317
#
# Disc length: 4139 seconds
#
# Revision: 0
# Processed by: cddbd v1.5.1PL0 Copyright (c) Steve Scherf et al.
# Submitted via: CDex 1.51
#
DISCID=b210290d
DTITLE=Enzo Cormann Jean-Marie Machado et Jean-Marc Padovani - Tombeau de Jack Kerouac
DYEAR=2004
DGENRE=Jazz
TTITLE0=Une époque épatante ...
TTITLE1=Qui pourrait croire ...
TTITLE2=Anything blues ...
TTITLE3=J'atteste ...
TTITLE4=Pic de la désolation ...
TTITLE5=Softly Seven
TTITLE6=Gérard tout blanc ...
TTITLE7=Film ambré ...
TTITLE8=Tucker's dream
TTITLE9=Nuit de la chute ...
TTITLE10=Tout un tas de salauds dans le monde ...
TTITLE11=Mésange bleue
TTITLE12=Lumière de la chute ...
EXTD=YEAR: 2004
EXTT0=
EXTT1=
EXTT2=
EXTT3=
EXTT4=
EXTT5=
EXTT6=
EXTT7=
EXTT8=
EXTT9=
EXTT10=
EXTT11=
EXTT12=
PLAYORDER=
